<svg width="110" height="32" viewBox="0 0 110 32" fill="none" xmlns="http://www.w3.org/2000/svg">
<g clip-path="url(#clip0_188_97)">
<path d="M9.74605 29.1224C16.6596 29.1224 21.2281 24.0686 21.2281 17.6403C21.2281 12.6674 17.9533 7.97754 11.525 7.97754C4.61145 7.97754 0.00244141 13.0313 0.00244141 19.4596C0.00244141 24.4325 3.3177 29.1224 9.74605 29.1224ZM10.1908 23.9474C7.32026 23.9474 5.6222 21.9663 5.6222 18.9745C5.6222 15.7401 7.88628 13.1526 11.0398 13.1526C13.9103 13.1526 15.6488 15.0932 15.6488 18.1254C15.6488 21.3598 13.3443 23.9474 10.1908 23.9474Z" fill="#2F3337"/>
<path d="M56.4774 29.1224C63.3909 29.1224 67.9595 24.0686 67.9595 17.6403C67.9595 12.6674 64.6846 7.97754 58.2563 7.97754C51.3428 7.97754 46.7337 13.0313 46.7337 19.4596C46.7337 24.4325 50.049 29.1224 56.4774 29.1224ZM56.9221 23.9474C54.0516 23.9474 52.3535 21.9663 52.3535 18.9745C52.3535 15.7401 54.6176 13.1526 57.7711 13.1526C60.6416 13.1526 62.3801 15.0932 62.3801 18.1254C62.3801 21.3598 60.0756 23.9474 56.9221 23.9474Z" fill="#2F3337"/>
<path d="M67.0984 28.6372H72.6373L74.7801 18.5702C75.5887 14.7293 77.5294 12.9908 80.1169 12.9908C82.5022 12.9908 83.6747 14.7698 83.0278 17.7616L80.7233 28.6372H86.2622L88.6476 17.3573C89.6583 12.6674 87.4751 8.01797 82.4618 8.01797C79.9956 8.01797 77.8124 9.06915 76.4782 10.5246L76.9229 8.42227H71.384L67.0984 28.6372Z" fill="#2F3337"/>
<path d="M99.1455 29.082C103.593 29.082 106.463 27.3839 108.404 24.7964L104.32 21.6024C103.188 23.0175 101.854 24.0282 99.5498 24.0282C96.8814 24.0282 94.7386 22.5323 94.5769 19.8235H110.021C111.315 12.6674 106.868 7.97754 100.884 7.97754C93.7683 7.97754 89.3614 12.8291 89.3614 19.4596C89.3614 24.5942 92.7171 29.082 99.1455 29.082ZM100.48 12.5461C102.744 12.5461 104.603 13.7186 104.806 16.0635H94.9407C95.7898 13.6782 98.3369 12.5461 100.48 12.5461Z" fill="#2F3337"/>
<path d="M26.7467 26.0403L35.9918 19.7512L43.0078 13.9164L60.6429 1.16049L60.6429 1.16044L21.2949 8.50717L27.3719 10.329L33.4489 12.1508L15.6107 26.9857L26.7467 26.0403Z" fill="#9EDF4A"/>
<path d="M44.9137 10.1815L35.8687 15.4549L28.3516 19.9223L7.65894 31.3099L47.1717 24.1072L34.9702 20.4778L55.6876 4.59583L44.9137 10.1815Z" fill="url(#paint0_linear_188_97)"/>
</g>
<defs>
<linearGradient id="paint0_linear_188_97" x1="35.8019" y1="18.4043" x2="35.0774" y2="16.8008" gradientUnits="userSpaceOnUse">
<stop stop-color="#9EDF4A"/>
<stop offset="1" stop-color="#58AC84"/>
</linearGradient>
<clipPath id="clip0_188_97">
<rect width="110" height="30.8772" fill="white" transform="translate(0 0.894043)"/>
</clipPath>
</defs>
</svg>